# xmcd
#
# Track frame offsets: 
#        150
#        15510
#        34374
#        54688
#        67755
#        88619
#        111603
#        130287
#        156061
#        173459
#        193058
#        211881
#        225150
#
# Disc length: 3197 seconds
#
# Revision: 2
# Processed by: cddbd v1.5.2PL0 Copyright (c) Steve Scherf et al.
# Submitted via: ExactAudioCopy v0.99pb5
#
DISCID=a50c7b0d
DTITLE=Troy Cassar Daley - Brighter Day
DYEAR=2005
DGENRE=Country
TTITLE0=Going Back Home
TTITLE1=Lonesome But Free
TTITLE2=Away From Here
TTITLE3=Time Is A Friend Of Mine
TTITLE4=Fisherman
TTITLE5=Getaway Car
TTITLE6=My Town
TTITLE7=Wanted Man
TTITLE8=Long As I Don't See You
TTITLE9=Family Farm
TTITLE10=Walking Away
TTITLE11=River Town
TTITLE12=Yellow Belly
EXTD=
EXTT0=
EXTT1=
EXTT2=
EXTT3=
EXTT4=
EXTT5=
EXTT6=
EXTT7=
EXTT8=
EXTT9=
EXTT10=
EXTT11=
EXTT12=
PLAYORDER=
